<?xml version="1.0" encoding="UTF-8"?>
<svg id="Layer_2" data-name="Layer 2" xmlns="http://www.w3.org/2000/svg" xmlns:xlink="http://www.w3.org/1999/xlink" viewBox="0 0 3719.49 1128.54">
  <defs>
    <style>
      .cls-1 {
        fill: url(#linear-gradient-12);
      }

      .cls-1, .cls-2, .cls-3, .cls-4, .cls-5, .cls-6, .cls-7, .cls-8, .cls-9, .cls-10, .cls-11, .cls-12, .cls-13, .cls-14, .cls-15, .cls-16, .cls-17, .cls-18, .cls-19, .cls-20, .cls-21, .cls-22, .cls-23, .cls-24, .cls-25, .cls-26, .cls-27 {
        stroke-width: 0px;
      }

      .cls-2 {
        fill: url(#linear-gradient-17);
      }

      .cls-3 {
        fill: url(#linear-gradient-19);
      }

      .cls-4 {
        fill: url(#linear-gradient);
      }

      .cls-5 {
        fill: url(#linear-gradient-21);
      }

      .cls-6 {
        fill: url(#linear-gradient-6);
      }

      .cls-7 {
        fill: url(#linear-gradient-15);
      }

      .cls-8 {
        fill: url(#linear-gradient-11);
      }

      .cls-9 {
        fill: url(#linear-gradient-5);
      }

      .cls-10 {
        fill: url(#linear-gradient-13);
      }

      .cls-11 {
        fill: url(#linear-gradient-23);
      }

      .cls-12 {
        fill: url(#linear-gradient-25);
      }

      .cls-13 {
        fill: url(#linear-gradient-16);
      }

      .cls-14 {
        fill: url(#linear-gradient-22);
      }

      .cls-15 {
        fill: url(#linear-gradient-20);
      }

      .cls-16 {
        fill: url(#linear-gradient-14);
      }

      .cls-17 {
        fill: url(#linear-gradient-2);
      }

      .cls-18 {
        fill: url(#linear-gradient-7);
      }

      .cls-19 {
        fill: url(#linear-gradient-3);
      }

      .cls-20 {
        fill: url(#linear-gradient-9);
      }

      .cls-21 {
        fill: url(#linear-gradient-27);
      }

      .cls-22 {
        fill: url(#linear-gradient-8);
      }

      .cls-23 {
        fill: url(#linear-gradient-24);
      }

      .cls-24 {
        fill: url(#linear-gradient-26);
      }

      .cls-25 {
        fill: url(#linear-gradient-18);
      }

      .cls-26 {
        fill: url(#linear-gradient-10);
      }

      .cls-27 {
        fill: url(#linear-gradient-4);
      }
    </style>
    <linearGradient id="linear-gradient" x1="181.38" y1="-555.26" x2="4161.23" y2="720.53" gradientUnits="userSpaceOnUse">
      <stop offset="0" stop-color="#9c7944"/>
      <stop offset=".5" stop-color="#e6da94"/>
      <stop offset="1" stop-color="#9c7944"/>
    </linearGradient>
    <linearGradient id="linear-gradient-2" x1="109.77" y1="-331.87" x2="4089.62" y2="943.91" xlink:href="#linear-gradient"/>
    <linearGradient id="linear-gradient-3" x1="18.89" y1="403.16" x2="3720.15" y2="1589.64" xlink:href="#linear-gradient"/>
    <linearGradient id="linear-gradient-4" x1="66.32" y1="255.19" x2="3767.58" y2="1441.68" xlink:href="#linear-gradient"/>
    <linearGradient id="linear-gradient-5" x1="101.99" y1="143.9" x2="3803.26" y2="1330.39" xlink:href="#linear-gradient"/>
    <linearGradient id="linear-gradient-6" x1="154.74" y1="-20.65" x2="3856.01" y2="1165.83" xlink:href="#linear-gradient"/>
    <linearGradient id="linear-gradient-7" x1="197.39" y1="-153.71" x2="3898.66" y2="1032.78" xlink:href="#linear-gradient"/>
    <linearGradient id="linear-gradient-8" x1="-135.31" y1="884.16" x2="3565.96" y2="2070.65" xlink:href="#linear-gradient"/>
    <linearGradient id="linear-gradient-9" x1="-126.37" y1="856.29" x2="3574.9" y2="2042.77" xlink:href="#linear-gradient"/>
    <linearGradient id="linear-gradient-10" x1="-116.89" y1="826.71" x2="3584.38" y2="2013.19" xlink:href="#linear-gradient"/>
    <linearGradient id="linear-gradient-11" x1="-96.88" y1="764.28" x2="3604.39" y2="1950.76" xlink:href="#linear-gradient"/>
    <linearGradient id="linear-gradient-12" x1="-89.31" y1="740.67" x2="3611.96" y2="1927.15" xlink:href="#linear-gradient"/>
    <linearGradient id="linear-gradient-13" x1="-77.52" y1="703.91" x2="3623.74" y2="1890.4" xlink:href="#linear-gradient"/>
    <linearGradient id="linear-gradient-14" x1="-58.86" y1="645.68" x2="3642.41" y2="1832.16" xlink:href="#linear-gradient"/>
    <linearGradient id="linear-gradient-15" x1="-50.8" y1="620.55" x2="3650.47" y2="1807.03" xlink:href="#linear-gradient"/>
    <linearGradient id="linear-gradient-16" x1="-39.05" y1="583.87" x2="3662.22" y2="1770.36" xlink:href="#linear-gradient"/>
    <linearGradient id="linear-gradient-17" x1="-29" y1="552.54" x2="3672.26" y2="1739.03" xlink:href="#linear-gradient"/>
    <linearGradient id="linear-gradient-18" x1="-21.59" y1="529.41" x2="3679.68" y2="1715.9" xlink:href="#linear-gradient"/>
    <linearGradient id="linear-gradient-19" x1="-11" y1="496.39" x2="3690.27" y2="1682.87" xlink:href="#linear-gradient"/>
    <linearGradient id="linear-gradient-20" x1="8.49" y1="435.59" x2="3709.76" y2="1622.07" xlink:href="#linear-gradient"/>
    <linearGradient id="linear-gradient-21" x1="18.15" y1="405.45" x2="3719.42" y2="1591.93" xlink:href="#linear-gradient"/>
    <linearGradient id="linear-gradient-22" x1="28.34" y1="373.67" x2="3729.6" y2="1560.16" xlink:href="#linear-gradient"/>
    <linearGradient id="linear-gradient-23" x1="37.13" y1="346.24" x2="3738.4" y2="1532.73" xlink:href="#linear-gradient"/>
    <linearGradient id="linear-gradient-24" x1="47.03" y1="315.36" x2="3748.3" y2="1501.85" xlink:href="#linear-gradient"/>
    <linearGradient id="linear-gradient-25" x1="55.7" y1="288.32" x2="3756.96" y2="1474.81" xlink:href="#linear-gradient"/>
    <linearGradient id="linear-gradient-26" x1="66.01" y1="256.15" x2="3767.28" y2="1442.64" xlink:href="#linear-gradient"/>
    <linearGradient id="linear-gradient-27" x1="74.95" y1="228.26" x2="3776.22" y2="1414.75" xlink:href="#linear-gradient"/>
  </defs>
  <g id="Layer_2-2" data-name="Layer 2">
    <g id="Logo">
      <g>
        <path class="cls-4" d="m2972.4,83.31h-.03c-20.92-5.97-42.71,6.15-48.68,27.06l-74.5,261c-3.09-.95-6.27-1.89-9.61-2.69V39.39c0-21.76-17.64-39.39-39.39-39.39s-39.39,17.64-39.39,39.39v327.51c-2.54.5-4.98,1.04-7.37,1.64l-75.98-260.98c-6.08-20.89-27.95-32.9-48.84-26.81h0c-20.88,6.09-32.88,27.95-26.8,48.84l80.11,275.09v.05c-.8,3.78-15.28,83.31,39.92,130.59,8.71,7.47,38.52,30.71,81.32,28.82,39.22-1.74,64.9-23.44,72.56-30.11,50.57-44.1,44.49-113.47,43.7-121.49l80.06-280.53c5.97-20.93-6.16-42.73-27.08-48.7Zm-132.81,360.08c0,13.54-6.82,25.48-17.17,32.55-6.32,4.33-13.99,6.87-22.2,6.87-9.36,0-17.97-3.24-24.74-8.71-8.96-7.22-14.68-18.27-14.68-30.71v-1h78.78v1Z"/>
        <path class="cls-17" d="m3710.48,1043.81c-45.57-91.56-91.13-183.12-136.7-274.67l-43.05-86.4L3202.61,23.94c-7.56-15.18-22.84-23.94-38.72-23.94-6.47,0-13.04,1.44-19.21,4.53-21.35,10.65-30.06,36.58-19.41,57.93l308.97,620.27h-352.86l-68.18-136.87c-7.56-15.18-22.84-23.94-38.72-23.94-6.47,0-13.04,1.44-19.21,4.53-21.35,10.65-30.06,36.58-19.41,57.98l48.97,98.29h-340.07c-11.94,0-22.69,4.83-30.56,12.64-7.76,7.76-12.57,18.51-12.64,30.3-.14,23.91,20.84,43.45,44.75,43.45h381.58l135.87,272.79h-518.99c-11.94,0-22.69,4.83-30.56,12.64-7.64,7.69-12.43,18.14-12.63,29.77-.43,24.19,20.49,43.99,44.69,43.99h993.18c3.07.12,7.65.24,13.22.22,0,0,5.41-.03,9.95-.21,15.63-.63,34.25-1.39,45.64-13.24,3.3-3.43,4.96-6.73,6.19-9.21,11.7-23.61.01-53.04-3.94-62.07Zm-450.19-1.89l-135.87-272.79h352.81l135.87,272.79h-352.81Z"/>
      </g>
      <g>
        <polygon class="cls-19" points="0 788.34 0 147.22 114.81 147.22 114.81 424.24 326.14 424.24 326.14 147.22 440.95 147.22 440.95 788.34 326.14 788.34 326.14 488.36 114.81 488.36 114.81 788.34 0 788.34"/>
        <polygon class="cls-27" points="569.96 788.34 569.96 147.22 888.99 147.22 888.99 213.7 684.77 213.7 684.77 425.83 850.38 425.83 850.38 489.15 684.77 489.15 684.77 724.22 891.02 724.22 891.02 788.34 569.96 788.34"/>
        <path class="cls-9" d="m983.48,788.34V147.22h178.82c60.96,0,109.22,7.26,144.78,21.77,35.56,14.52,60.96,36.29,76.2,65.3,15.24,29.03,22.86,65.18,22.86,108.44v235.87c0,45.39-7.62,83.64-22.86,114.76-15.24,31.14-39.97,54.75-74.17,70.84-34.21,16.1-80.1,24.14-137.67,24.14h-187.96Zm114.81-64.11h65.02c41.99,0,71.79-6.33,89.41-18.99,17.6-12.67,28.27-31.13,32-55.41,3.71-24.27,5.59-53.55,5.59-87.86v-208.16c0-33.24-2.71-60.15-8.13-80.73-5.43-20.58-17.27-35.62-35.56-45.12-18.29-9.5-47.09-14.25-86.36-14.25h-61.98v510.52Z"/>
        <polygon class="cls-6" points="1518.9 788.34 1518.9 147.22 1837.93 147.22 1837.93 213.7 1633.71 213.7 1633.71 425.83 1799.32 425.83 1799.32 489.15 1633.71 489.15 1633.71 724.22 1839.96 724.22 1839.96 788.34 1518.9 788.34"/>
        <polygon class="cls-18" points="1932.41 788.34 1932.41 147.22 2010.65 147.22 2244.33 573.04 2244.33 147.22 2339.83 147.22 2339.83 788.34 2266.67 788.34 2029.95 350.63 2029.95 788.34 1932.41 788.34"/>
        <path class="cls-22" d="m34.5,906.08v67.38h14.66c1.34,0,2.31.26,2.89.77.58.51.87,1.2.87,2.05s-.29,1.48-.87,2.02c-.58.54-1.55.81-2.89.81H14.12c-1.34,0-2.31-.27-2.89-.81-.58-.54-.87-1.21-.87-2.02,0-.85.29-1.54.87-2.05.58-.51,1.55-.77,2.89-.77h14.66v-67.38H5.65v19.57c0,1.39-.26,2.38-.77,2.96-.52.58-1.2.87-2.05.87s-1.48-.29-2.02-.87c-.54-.58-.81-1.57-.81-2.96v-25.22h63.28v25.22c0,1.39-.26,2.38-.77,2.96-.52.58-1.2.87-2.05.87s-1.54-.29-2.05-.87c-.52-.58-.77-1.57-.77-2.96v-19.57h-23.13Z"/>
        <path class="cls-20" d="m154.14,941.04h-37.46v32.41h7.6c1.34,0,2.31.26,2.89.77.58.51.87,1.2.87,2.05s-.29,1.48-.87,2.02c-.58.54-1.55.81-2.89.81h-19.64c-1.34,0-2.31-.27-2.89-.81-.58-.54-.87-1.21-.87-2.02,0-.85.29-1.54.87-2.05.58-.51,1.55-.77,2.89-.77h6.39v-67.38h-3.5c-1.39,0-2.38-.26-2.96-.77-.58-.51-.87-1.2-.87-2.05s.29-1.54.87-2.05c.58-.51,1.57-.77,2.96-.77h16.74c1.34,0,2.31.26,2.89.77.58.51.87,1.2.87,2.05s-.29,1.54-.87,2.05c-.58.51-1.55.77-2.89.77h-7.6v29.32h37.46v-29.32h-7.53c-1.34,0-2.31-.26-2.89-.77-.58-.51-.87-1.2-.87-2.05s.28-1.54.84-2.05c.56-.51,1.53-.77,2.93-.77h16.74c1.39,0,2.38.26,2.96.77.58.51.87,1.2.87,2.05s-.29,1.54-.87,2.05c-.58.51-1.57.77-2.96.77h-3.5v67.38h6.39c1.34,0,2.31.26,2.89.77.58.51.87,1.2.87,2.05s-.29,1.48-.87,2.02c-.58.54-1.55.81-2.89.81h-19.64c-1.34,0-2.31-.27-2.89-.81-.58-.54-.87-1.21-.87-2.02,0-.85.28-1.54.84-2.05.56-.51,1.53-.77,2.93-.77h7.53v-32.41Z"/>
        <path class="cls-26" d="m219.92,941.11v32.35h43.44v-16.68c0-1.35.26-2.31.77-2.89.51-.58,1.2-.87,2.05-.87s1.53.29,2.05.87c.51.58.77,1.55.77,2.89v22.33h-62.34c-1.34,0-2.31-.27-2.89-.81-.58-.54-.87-1.21-.87-2.02,0-.85.29-1.54.87-2.05.58-.51,1.55-.77,2.89-.77h7.6v-67.38h-7.6c-1.34,0-2.31-.26-2.89-.77-.58-.51-.87-1.2-.87-2.05s.29-1.54.87-2.05c.58-.51,1.55-.77,2.89-.77h59.38v19.43c0,1.34-.26,2.31-.77,2.89-.52.58-1.2.87-2.05.87s-1.54-.29-2.05-.87c-.52-.58-.77-1.55-.77-2.89v-13.79h-40.48v29.39h20.24v-6.39c0-1.35.27-2.31.81-2.89.54-.58,1.23-.87,2.08-.87.81,0,1.48.29,2.02.87.54.58.81,1.55.81,2.89v18.43c0,1.35-.27,2.31-.81,2.89-.54.58-1.21.87-2.02.87-.85,0-1.55-.29-2.08-.87-.54-.58-.81-1.55-.81-2.89v-6.39h-20.24Z"/>
        <path class="cls-8" d="m469.69,979.1h-8.88l-16-55.88-15.67,55.88h-8.88l-8.34-73.03h-2.08c-1.34,0-2.31-.26-2.89-.77-.58-.51-.87-1.2-.87-2.05s.29-1.54.87-2.05c.58-.51,1.55-.77,2.89-.77h20.98c1.39,0,2.38.26,2.96.77.58.51.87,1.2.87,2.05s-.29,1.54-.87,2.05c-.58.51-1.57.77-2.96.77h-13.18l7.46,66.57,15.26-54.81h8.67l15.67,54.81,7.33-66.57h-13.25c-1.34,0-2.31-.26-2.89-.77-.58-.51-.87-1.2-.87-2.05s.29-1.54.87-2.05c.58-.51,1.55-.77,2.89-.77h20.85c1.39,0,2.38.26,2.96.77.58.51.87,1.2.87,2.05s-.29,1.54-.87,2.05c-.58.51-1.57.77-2.96.77h-2.08l-7.87,73.03Z"/>
        <path class="cls-1" d="m566.81,952.81h-37.12l-7.6,20.64h10.83c1.34,0,2.31.26,2.89.77.58.51.87,1.2.87,2.05s-.29,1.48-.87,2.02c-.58.54-1.55.81-2.89.81h-21.12c-1.34,0-2.31-.27-2.89-.81-.58-.54-.87-1.21-.87-2.02,0-.85.29-1.54.87-2.05.58-.51,1.55-.77,2.89-.77h4.37l24.95-67.38h-16.68c-1.34,0-2.31-.26-2.89-.77-.58-.51-.87-1.2-.87-2.05s.29-1.54.87-2.05c.58-.51,1.55-.77,2.89-.77h28.44l27.57,73.03h4.37c1.34,0,2.31.26,2.89.77.58.51.87,1.2.87,2.05s-.29,1.48-.87,2.02c-.58.54-1.55.81-2.89.81h-21.05c-1.39,0-2.38-.27-2.96-.81-.58-.54-.87-1.21-.87-2.02,0-.85.29-1.54.87-2.05.58-.51,1.57-.77,2.96-.77h10.76l-7.73-20.64Zm-2.15-5.65l-15.6-41.09h-2.08l-15.13,41.09h32.82Z"/>
        <path class="cls-10" d="m654.51,943.6v29.86h14.66c1.34,0,2.31.26,2.89.77.58.51.87,1.2.87,2.05s-.29,1.48-.87,2.02c-.58.54-1.55.81-2.89.81h-35.03c-1.34,0-2.31-.27-2.89-.81-.58-.54-.87-1.21-.87-2.02,0-.85.28-1.54.84-2.05.56-.51,1.53-.77,2.93-.77h14.66v-29.86l-24.81-37.52h-3.36c-1.34,0-2.31-.26-2.89-.77-.58-.51-.87-1.2-.87-2.05s.29-1.54.87-2.05c.58-.51,1.55-.77,2.89-.77h15.53c1.34,0,2.31.26,2.89.77.58.51.87,1.2.87,2.05s-.29,1.54-.87,2.05c-.58.51-1.55.77-2.89.77h-5.58l21.12,31.81,20.64-31.81h-5.51c-1.39,0-2.38-.26-2.96-.77-.58-.51-.87-1.2-.87-2.05s.29-1.54.87-2.05c.58-.51,1.57-.77,2.96-.77h15.47c1.34,0,2.31.26,2.89.77.58.51.87,1.2.87,2.05s-.29,1.54-.87,2.05c-.58.51-1.55.77-2.89.77h-3.36l-24.41,37.52Z"/>
        <path class="cls-16" d="m885.8,979.1h-7.26l-41.62-70.41v64.76h10.42c1.39,0,2.38.26,2.96.77.58.51.87,1.2.87,2.05s-.29,1.48-.87,2.02c-.58.54-1.57.81-2.96.81h-20.78c-1.39,0-2.38-.27-2.96-.81-.58-.54-.87-1.21-.87-2.02,0-.85.29-1.54.87-2.05.58-.51,1.57-.77,2.96-.77h4.71v-67.38h-7.6c-1.34,0-2.31-.26-2.89-.77-.58-.51-.87-1.2-.87-2.05s.29-1.54.87-2.05c.58-.51,1.55-.77,2.89-.77h14.79l41.69,70.54v-64.89h-10.42c-1.34,0-2.31-.26-2.89-.77-.58-.51-.87-1.2-.87-2.05s.28-1.54.84-2.05c.56-.51,1.53-.77,2.93-.77h20.85c1.34,0,2.31.26,2.89.77.58.51.87,1.2.87,2.05s-.29,1.54-.87,2.05c-.58.51-1.55.77-2.89.77h-4.77v73.03Z"/>
        <path class="cls-7" d="m980.02,952.81h-37.12l-7.6,20.64h10.83c1.35,0,2.31.26,2.89.77.58.51.87,1.2.87,2.05s-.29,1.48-.87,2.02c-.58.54-1.55.81-2.89.81h-21.11c-1.35,0-2.31-.27-2.89-.81-.58-.54-.87-1.21-.87-2.02,0-.85.29-1.54.87-2.05.58-.51,1.55-.77,2.89-.77h4.37l24.95-67.38h-16.68c-1.34,0-2.31-.26-2.89-.77-.58-.51-.87-1.2-.87-2.05s.29-1.54.87-2.05c.58-.51,1.55-.77,2.89-.77h28.44l27.57,73.03h4.37c1.35,0,2.31.26,2.89.77.58.51.87,1.2.87,2.05s-.29,1.48-.87,2.02c-.58.54-1.55.81-2.89.81h-21.05c-1.39,0-2.38-.27-2.96-.81-.58-.54-.87-1.21-.87-2.02,0-.85.29-1.54.87-2.05.58-.51,1.57-.77,2.96-.77h10.76l-7.73-20.64Zm-2.15-5.65l-15.6-41.09h-2.08l-15.13,41.09h32.82Z"/>
        <path class="cls-13" d="m1067.52,906.08v67.38h14.66c1.34,0,2.31.26,2.89.77.58.51.87,1.2.87,2.05s-.29,1.48-.87,2.02c-.58.54-1.55.81-2.89.81h-35.03c-1.34,0-2.31-.27-2.89-.81-.58-.54-.87-1.21-.87-2.02,0-.85.29-1.54.87-2.05.58-.51,1.55-.77,2.89-.77h14.66v-67.38h-23.13v19.57c0,1.39-.26,2.38-.77,2.96-.51.58-1.2.87-2.05.87s-1.48-.29-2.02-.87c-.54-.58-.81-1.57-.81-2.96v-25.22h63.28v25.22c0,1.39-.26,2.38-.77,2.96-.51.58-1.2.87-2.05.87s-1.54-.29-2.05-.87c-.51-.58-.77-1.57-.77-2.96v-19.57h-23.13Z"/>
        <path class="cls-2" d="m1195.37,906.08v47.21c0,7.93-2.65,14.59-7.93,19.97-5.29,5.38-11.68,8.07-19.16,8.07-5.02,0-9.48-1.1-13.38-3.3-3.9-2.2-7.22-5.52-9.95-9.99-2.73-4.46-4.1-9.38-4.1-14.76v-47.21h-4.77c-1.35,0-2.31-.26-2.89-.77-.58-.51-.87-1.2-.87-2.05s.31-1.57.94-2.15c.54-.45,1.48-.67,2.82-.67h20.85c1.34,0,2.31.26,2.89.77.58.51.87,1.2.87,2.05s-.29,1.54-.87,2.05c-.58.51-1.55.77-2.89.77h-10.42v47.21c0,6.23,2.13,11.52,6.39,15.87,4.26,4.35,9.3,6.52,15.13,6.52,3.72,0,7.12-.85,10.19-2.56,3.07-1.71,5.76-4.33,8.07-7.87,2.31-3.54,3.46-7.53,3.46-11.97v-47.21h-10.42c-1.34,0-2.31-.26-2.89-.77-.58-.51-.87-1.2-.87-2.05s.29-1.54.87-2.05c.58-.51,1.55-.77,2.89-.77h20.85c1.35,0,2.31.26,2.89.77.58.51.87,1.2.87,2.05s-.29,1.54-.87,2.05c-.58.51-1.55.77-2.89.77h-4.77Z"/>
        <path class="cls-25" d="m1252.94,944v29.45h10.42c1.39,0,2.38.26,2.96.77.58.51.87,1.2.87,2.05s-.29,1.48-.87,2.02c-.58.54-1.57.81-2.96.81h-23.67c-1.34,0-2.31-.27-2.89-.81-.58-.54-.87-1.21-.87-2.02,0-.85.29-1.54.87-2.05.58-.51,1.55-.77,2.89-.77h7.6v-67.38h-7.6c-1.34,0-2.31-.26-2.89-.77-.58-.51-.87-1.2-.87-2.05s.29-1.54.87-2.05c.58-.51,1.55-.77,2.89-.77h34.16c7.04,0,12.97,2.23,17.79,6.69,4.82,4.46,7.23,9.49,7.23,15.1,0,4.03-1.49,7.83-4.47,11.4-2.98,3.56-7.97,6.53-14.96,8.91,4.03,2.78,7.49,5.92,10.36,9.41,2.87,3.5,7.46,10.67,13.79,21.52h4.3c1.34,0,2.31.26,2.89.77.58.51.87,1.2.87,2.05s-.29,1.48-.87,2.02c-.58.54-1.55.81-2.89.81h-7.53c-6.99-12.51-12.41-20.89-16.24-25.15-3.83-4.26-8.24-7.57-13.21-9.95h-17.95Zm0-5.65h15.4c4.93,0,9.4-.9,13.42-2.69,4.01-1.79,6.93-3.9,8.74-6.32,1.82-2.42,2.72-4.88,2.72-7.4,0-3.77-1.89-7.35-5.68-10.76-3.79-3.41-8.4-5.11-13.82-5.11h-20.78v32.28Z"/>
        <path class="cls-3" d="m1356.25,941.11v32.35h43.44v-16.68c0-1.35.26-2.31.77-2.89.51-.58,1.2-.87,2.05-.87s1.54.29,2.05.87c.51.58.77,1.55.77,2.89v22.33h-62.34c-1.34,0-2.31-.27-2.89-.81-.58-.54-.87-1.21-.87-2.02,0-.85.29-1.54.87-2.05.58-.51,1.55-.77,2.89-.77h7.6v-67.38h-7.6c-1.34,0-2.31-.26-2.89-.77-.58-.51-.87-1.2-.87-2.05s.29-1.54.87-2.05c.58-.51,1.55-.77,2.89-.77h59.38v19.43c0,1.34-.26,2.31-.77,2.89-.51.58-1.2.87-2.05.87s-1.54-.29-2.05-.87c-.51-.58-.77-1.55-.77-2.89v-13.79h-40.48v29.39h20.24v-6.39c0-1.35.27-2.31.81-2.89.54-.58,1.23-.87,2.08-.87s1.48.29,2.02.87c.54.58.81,1.55.81,2.89v18.43c0,1.35-.27,2.31-.81,2.89-.54.58-1.21.87-2.02.87-.85,0-1.55-.29-2.08-.87-.54-.58-.81-1.55-.81-2.89v-6.39h-20.24Z"/>
        <path class="cls-15" d="m1584.1,906.08v67.38h19.37c1.34,0,2.31.26,2.89.77.58.51.87,1.2.87,2.05s-.29,1.48-.87,2.02c-.58.54-1.55.81-2.89.81h-44.38c-1.34,0-2.31-.27-2.89-.81-.58-.54-.87-1.21-.87-2.02,0-.85.29-1.54.87-2.05.58-.51,1.55-.77,2.89-.77h19.37v-67.38h-19.37c-1.34,0-2.31-.26-2.89-.77-.58-.51-.87-1.2-.87-2.05s.29-1.54.87-2.05c.58-.51,1.55-.77,2.89-.77h44.38c1.34,0,2.31.26,2.89.77.58.51.87,1.2.87,2.05s-.29,1.54-.87,2.05c-.58.51-1.55.77-2.89.77h-19.37Z"/>
        <path class="cls-5" d="m1712.21,979.1h-7.26l-41.62-70.41v64.76h10.42c1.39,0,2.38.26,2.96.77.58.51.87,1.2.87,2.05s-.29,1.48-.87,2.02c-.58.54-1.57.81-2.96.81h-20.78c-1.39,0-2.38-.27-2.96-.81-.58-.54-.87-1.21-.87-2.02,0-.85.29-1.54.87-2.05.58-.51,1.57-.77,2.96-.77h4.71v-67.38h-7.6c-1.34,0-2.31-.26-2.89-.77-.58-.51-.87-1.2-.87-2.05s.29-1.54.87-2.05c.58-.51,1.55-.77,2.89-.77h14.79l41.69,70.54v-64.89h-10.42c-1.35,0-2.31-.26-2.89-.77-.58-.51-.87-1.2-.87-2.05s.28-1.54.84-2.05c.56-.51,1.54-.77,2.93-.77h20.85c1.34,0,2.31.26,2.89.77.58.51.87,1.2.87,2.05s-.29,1.54-.87,2.05c-.58.51-1.55.77-2.89.77h-4.77v73.03Z"/>
        <path class="cls-14" d="m1790.64,906.08v67.38h14.66c1.34,0,2.31.26,2.89.77.58.51.87,1.2.87,2.05s-.29,1.48-.87,2.02c-.58.54-1.55.81-2.89.81h-35.03c-1.34,0-2.31-.27-2.89-.81-.58-.54-.87-1.21-.87-2.02,0-.85.29-1.54.87-2.05.58-.51,1.55-.77,2.89-.77h14.66v-67.38h-23.13v19.57c0,1.39-.26,2.38-.77,2.96-.51.58-1.2.87-2.05.87s-1.48-.29-2.02-.87c-.54-.58-.81-1.57-.81-2.96v-25.22h63.28v25.22c0,1.39-.26,2.38-.77,2.96-.51.58-1.2.87-2.05.87s-1.54-.29-2.05-.87c-.51-.58-.77-1.57-.77-2.96v-19.57h-23.13Z"/>
        <path class="cls-11" d="m1872.76,941.11v32.35h43.44v-16.68c0-1.35.26-2.31.77-2.89.51-.58,1.2-.87,2.05-.87s1.54.29,2.05.87c.51.58.77,1.55.77,2.89v22.33h-62.34c-1.35,0-2.31-.27-2.89-.81-.58-.54-.87-1.21-.87-2.02,0-.85.29-1.54.87-2.05.58-.51,1.55-.77,2.89-.77h7.6v-67.38h-7.6c-1.35,0-2.31-.26-2.89-.77-.58-.51-.87-1.2-.87-2.05s.29-1.54.87-2.05c.58-.51,1.55-.77,2.89-.77h59.38v19.43c0,1.34-.26,2.31-.77,2.89s-1.2.87-2.05.87-1.54-.29-2.05-.87-.77-1.55-.77-2.89v-13.79h-40.48v29.39h20.24v-6.39c0-1.35.27-2.31.81-2.89.54-.58,1.23-.87,2.08-.87s1.48.29,2.02.87c.54.58.81,1.55.81,2.89v18.43c0,1.35-.27,2.31-.81,2.89-.54.58-1.21.87-2.02.87-.85,0-1.55-.29-2.08-.87-.54-.58-.81-1.55-.81-2.89v-6.39h-20.24Z"/>
        <path class="cls-23" d="m2022.12,979.1h-7.26l-41.63-70.41v64.76h10.42c1.39,0,2.38.26,2.96.77.58.51.87,1.2.87,2.05s-.29,1.48-.87,2.02c-.58.54-1.57.81-2.96.81h-20.78c-1.39,0-2.38-.27-2.96-.81-.58-.54-.87-1.21-.87-2.02,0-.85.29-1.54.87-2.05.58-.51,1.57-.77,2.96-.77h4.71v-67.38h-7.6c-1.35,0-2.31-.26-2.89-.77-.58-.51-.87-1.2-.87-2.05s.29-1.54.87-2.05c.58-.51,1.55-.77,2.89-.77h14.79l41.69,70.54v-64.89h-10.42c-1.34,0-2.31-.26-2.89-.77-.58-.51-.87-1.2-.87-2.05s.28-1.54.84-2.05c.56-.51,1.54-.77,2.93-.77h20.85c1.35,0,2.31.26,2.89.77.58.51.87,1.2.87,2.05s-.29,1.54-.87,2.05c-.58.51-1.55.77-2.89.77h-4.77v73.03Z"/>
        <path class="cls-12" d="m2075.59,973.46v-67.38h-4.77c-1.35,0-2.31-.26-2.89-.77-.58-.51-.87-1.2-.87-2.05s.29-1.54.87-2.05c.58-.51,1.55-.77,2.89-.77h30.39c4.75,0,9.09.98,13.01,2.96,3.92,1.97,6.92,4.21,8.98,6.72,3.54,4.26,6.23,8.77,8.07,13.52,1.3,3.45,1.95,7.53,1.95,12.24v7.8c0,5.78-1.28,11.39-3.83,16.81-2.56,5.42-6.82,10.15-12.78,14.19-4.44,2.96-9.57,4.44-15.4,4.44h-30.39c-1.35,0-2.31-.27-2.89-.81-.58-.54-.87-1.21-.87-2.02,0-.85.29-1.54.87-2.05.58-.51,1.55-.77,2.89-.77h4.77Zm5.65,0h20.51c4.75,0,9.2-1.55,13.35-4.64,4.15-3.09,7.26-6.8,9.35-11.13,2.08-4.33,3.13-8.6,3.13-12.81v-10.22c0-3.5-.56-6.61-1.68-9.35-1.61-3.99-3.9-7.78-6.86-11.36-1.61-1.97-3.99-3.78-7.13-5.41-3.14-1.64-6.52-2.45-10.15-2.45h-20.51v67.38Z"/>
        <path class="cls-24" d="m2182.66,941.11v32.35h43.44v-16.68c0-1.35.26-2.31.77-2.89.51-.58,1.2-.87,2.05-.87s1.54.29,2.05.87c.51.58.77,1.55.77,2.89v22.33h-62.34c-1.34,0-2.31-.27-2.89-.81-.58-.54-.87-1.21-.87-2.02,0-.85.29-1.54.87-2.05.58-.51,1.55-.77,2.89-.77h7.6v-67.38h-7.6c-1.34,0-2.31-.26-2.89-.77-.58-.51-.87-1.2-.87-2.05s.29-1.54.87-2.05c.58-.51,1.55-.77,2.89-.77h59.38v19.43c0,1.34-.26,2.31-.77,2.89-.51.58-1.2.87-2.05.87s-1.54-.29-2.05-.87-.77-1.55-.77-2.89v-13.79h-40.48v29.39h20.24v-6.39c0-1.35.27-2.31.81-2.89.54-.58,1.23-.87,2.08-.87s1.48.29,2.02.87c.54.58.81,1.55.81,2.89v18.43c0,1.35-.27,2.31-.81,2.89-.54.58-1.21.87-2.02.87-.85,0-1.55-.29-2.08-.87-.54-.58-.81-1.55-.81-2.89v-6.39h-20.24Z"/>
        <path class="cls-21" d="m2282.2,973.46v-67.38h-4.77c-1.34,0-2.31-.26-2.89-.77-.58-.51-.87-1.2-.87-2.05s.29-1.54.87-2.05c.58-.51,1.55-.77,2.89-.77h30.39c4.75,0,9.09.98,13.01,2.96,3.92,1.97,6.92,4.21,8.98,6.72,3.54,4.26,6.23,8.77,8.07,13.52,1.3,3.45,1.95,7.53,1.95,12.24v7.8c0,5.78-1.28,11.39-3.83,16.81-2.56,5.42-6.82,10.15-12.78,14.19-4.44,2.96-9.57,4.44-15.4,4.44h-30.39c-1.34,0-2.31-.27-2.89-.81-.58-.54-.87-1.21-.87-2.02,0-.85.29-1.54.87-2.05.58-.51,1.55-.77,2.89-.77h4.77Zm5.65,0h20.51c4.75,0,9.2-1.55,13.35-4.64,4.15-3.09,7.26-6.8,9.35-11.13,2.08-4.33,3.13-8.6,3.13-12.81v-10.22c0-3.5-.56-6.61-1.68-9.35-1.61-3.99-3.9-7.78-6.86-11.36-1.61-1.97-3.99-3.78-7.13-5.41-3.14-1.64-6.52-2.45-10.15-2.45h-20.51v67.38Z"/>
      </g>
    </g>
  </g>
</svg>