<?xml version="1.0" encoding="UTF-8"?>
<svg id="Layer_2" data-name="Layer 2" xmlns="http://www.w3.org/2000/svg" xmlns:xlink="http://www.w3.org/1999/xlink" viewBox="0 0 1119.27 1128.54">
  <defs>
    <style>
      .cls-1 {
        fill: url(#linear-gradient);
      }

      .cls-1, .cls-2 {
        stroke-width: 0px;
      }

      .cls-2 {
        fill: url(#linear-gradient-2);
      }
    </style>
    <linearGradient id="linear-gradient" x1="-2418.84" y1="-555.26" x2="1561.01" y2="720.53" gradientUnits="userSpaceOnUse">
      <stop offset="0" stop-color="#9c7944"/>
      <stop offset=".5" stop-color="#e6da94"/>
      <stop offset="1" stop-color="#9c7944"/>
    </linearGradient>
    <linearGradient id="linear-gradient-2" x1="-2490.45" y1="-331.87" x2="1489.4" y2="943.91" xlink:href="#linear-gradient"/>
  </defs>
  <g id="Layer_2-2" data-name="Layer 2">
    <g id="Logo">
      <g>
        <path class="cls-1" d="m372.18,83.31h-.03c-20.92-5.97-42.71,6.15-48.68,27.06l-74.5,261c-3.09-.95-6.27-1.89-9.61-2.69V39.39c0-21.76-17.64-39.39-39.39-39.39s-39.39,17.64-39.39,39.39v327.51c-2.54.5-4.98,1.04-7.37,1.64L77.23,107.56c-6.08-20.89-27.95-32.9-48.84-26.81h0C7.5,86.84-4.5,108.7,1.58,129.59l80.11,275.09v.05c-.8,3.78-15.28,83.31,39.92,130.59,8.71,7.47,38.52,30.71,81.32,28.82,39.22-1.74,64.9-23.44,72.56-30.11,50.57-44.1,44.49-113.47,43.7-121.49l80.06-280.53c5.97-20.93-6.16-42.73-27.08-48.7Zm-132.81,360.08c0,13.54-6.82,25.48-17.17,32.55-6.32,4.33-13.99,6.87-22.2,6.87-9.36,0-17.97-3.24-24.74-8.71-8.96-7.22-14.68-18.27-14.68-30.71v-1h78.78v1Z"/>
        <path class="cls-2" d="m1110.26,1043.81c-45.57-91.56-91.13-183.12-136.7-274.67l-43.05-86.4L602.38,23.94c-7.56-15.18-22.84-23.94-38.72-23.94-6.47,0-13.04,1.44-19.21,4.53-21.35,10.65-30.06,36.58-19.41,57.93l308.97,620.27h-352.86l-68.18-136.87c-7.56-15.18-22.84-23.94-38.72-23.94-6.47,0-13.04,1.44-19.21,4.53-21.35,10.65-30.06,36.58-19.41,57.98l48.97,98.29H44.52c-11.94,0-22.69,4.83-30.56,12.64-7.76,7.76-12.57,18.51-12.64,30.3-.14,23.91,20.84,43.45,44.75,43.45h381.58l135.87,272.79H44.52c-11.94,0-22.69,4.83-30.56,12.64-7.64,7.69-12.43,18.14-12.63,29.77-.43,24.19,20.49,43.99,44.69,43.99h993.18c3.07.12,7.65.24,13.22.22,0,0,5.41-.03,9.95-.21,15.63-.63,34.25-1.39,45.64-13.24,3.3-3.43,4.96-6.73,6.19-9.21,11.7-23.61.01-53.04-3.94-62.07Zm-450.19-1.89l-135.87-272.79h352.81l135.87,272.79h-352.81Z"/>
      </g>
    </g>
  </g>
</svg>